<?xml version="1.0" standalone="no"?>
<!DOCTYPE svg PUBLIC "-//W3C//DTD SVG 20010904//EN"
 "http://www.w3.org/TR/2001/REC-SVG-20010904/DTD/svg10.dtd">
<svg version="1.0" xmlns="http://www.w3.org/2000/svg"
 width="256.000000pt" height="256.000000pt" viewBox="0 0 256.000000 256.000000"
 preserveAspectRatio="xMidYMid meet">
<metadata>
Created by potrace 1.14, written by Peter Selinger 2001-2017
</metadata>
<g transform="translate(0.000000,256.000000) scale(0.100000,-0.100000)"
fill="#000000" stroke="none">
<path d="M858 2519 c-43 -46 -46 -54 -19 -40 26 15 31 -3 17 -60 -12 -45 -12
-45 13 -41 l24 5 -21 -30 c-16 -23 -18 -30 -6 -30 7 0 12 3 9 5 -3 3 5 16 17
29 12 13 16 23 10 23 -7 0 -11 11 -10 25 1 14 6 25 10 25 4 0 8 7 8 15 0 17
16 20 25 5 10 -17 45 -11 78 12 18 12 34 26 36 31 2 4 15 13 30 19 21 9 23 12
9 15 -10 3 -18 11 -18 19 0 18 -130 20 -149 2 -11 -10 -13 -10 -7 0 16 28 -22
9 -56 -29z"/>
<path d="M1120 2551 c0 -18 18 -21 30 -6 10 13 9 15 -9 15 -11 0 -21 -4 -21
-9z"/>
<path d="M1100 2465 c-10 -12 -10 -15 4 -15 9 0 16 7 16 15 0 8 -2 15 -4 15
-2 0 -9 -7 -16 -15z"/>
<path d="M688 2330 c-14 -10 -27 -17 -30 -15 -2 2 -19 -9 -37 -25 -33 -31 -51
-40 -34 -17 15 18 23 57 12 57 -5 0 -12 -8 -16 -17 -3 -10 -12 -25 -20 -35 -8
-9 -15 -22 -17 -30 -1 -7 -5 -18 -9 -24 -4 -7 -27 -72 -51 -145 -45 -134 -45
-134 -41 -254 3 -95 9 -134 28 -188 14 -37 27 -71 31 -74 3 -4 6 -16 6 -28 0
-14 9 -26 25 -33 15 -7 25 -20 25 -32 0 -11 5 -20 12 -20 6 0 8 -3 5 -7 -4 -3
-3 -11 2 -17 4 -6 11 -49 15 -96 5 -64 12 -94 30 -120 13 -19 33 -69 46 -110
59 -196 93 -301 122 -374 l31 -78 -24 -19 c-13 -10 -49 -25 -79 -34 -30 -9
-64 -21 -75 -27 -69 -39 -128 -61 -180 -68 -74 -10 -86 -15 -152 -58 -60 -39
-110 -107 -118 -161 -13 -76 -16 -82 -63 -111 -26 -16 -66 -44 -89 -62 -37
-28 -43 -38 -43 -70 l0 -38 666 0 c465 0 663 3 659 11 -4 5 -4 22 -1 35 6 21
10 23 21 14 11 -9 17 -6 32 17 10 15 26 37 35 47 10 11 18 22 18 26 0 3 13 13
29 23 16 9 38 35 49 57 20 40 12 58 -8 19 -14 -26 -56 -23 -53 5 0 10 -10 29
-23 41 -29 27 -30 31 -4 38 11 3 20 14 20 25 0 18 28 52 43 52 4 0 29 14 57
31 27 17 54 28 60 24 11 -7 84 34 76 42 -3 3 -17 -2 -31 -11 -20 -13 -30 -15
-40 -6 -9 7 -19 8 -32 2 -80 -43 -256 -43 -304 -1 -12 10 -37 23 -55 28 -43
12 -63 32 -70 70 -4 17 -10 29 -14 28 -4 -1 -17 9 -29 22 -19 22 -20 26 -6 40
10 10 18 12 25 5 12 -12 70 -6 70 7 0 5 5 9 11 9 5 0 7 -5 3 -11 -4 -7 1 -7
16 1 12 6 24 9 27 6 3 -2 15 -1 28 4 14 5 26 5 33 -2 13 -13 52 0 52 18 0 15
-39 35 -52 27 -15 -9 -8 10 9 22 23 17 10 45 -19 40 -29 -6 -60 4 -56 17 4 11
83 22 143 19 91 -4 160 0 169 9 7 7 -9 10 -46 10 -40 0 -62 5 -80 20 -27 21
-106 42 -122 33 -15 -10 -88 -4 -102 8 -9 7 -14 5 -19 -10 -13 -42 -135 -25
-135 19 0 6 -4 8 -10 5 -14 -8 -13 -36 1 -32 6 1 16 -6 22 -16 9 -14 9 -19 -2
-26 -7 -5 -10 -14 -7 -20 4 -6 12 -9 17 -6 5 4 9 1 9 -5 0 -6 4 -9 8 -6 4 2 9
-6 10 -20 2 -22 -8 -29 -32 -25 -5 1 -6 -13 -3 -31 3 -21 0 -41 -9 -52 -12
-18 -16 -16 -56 25 -24 24 -50 52 -57 61 -22 30 -31 90 -19 137 8 31 8 49 0
61 -6 10 -7 21 -2 26 6 6 -1 31 -15 63 -14 29 -25 59 -25 67 0 8 -11 20 -25
26 -14 6 -25 15 -25 20 0 4 -7 8 -15 8 -9 0 -18 12 -21 30 -6 27 -34 44 -34
20 0 -5 -4 -10 -9 -10 -5 0 -7 8 -4 19 3 10 -1 22 -8 26 -7 5 -10 4 -5 -3 3
-5 1 -12 -6 -14 -7 -3 -18 5 -24 16 -6 12 -17 20 -24 18 -10 -2 -11 0 -3 10 6
7 13 24 15 38 1 14 6 28 11 31 4 3 -3 18 -16 32 -23 28 -27 56 -13 113 6 26
11 30 31 26 24 -4 29 -12 26 -40 -3 -18 28 -52 46 -52 8 0 26 -9 41 -20 21
-16 44 -21 96 -21 76 -1 106 14 62 31 -15 5 -33 10 -39 10 -16 0 -57 29 -57
39 0 4 22 6 49 3 63 -6 91 9 91 49 0 28 2 29 23 18 12 -7 37 -26 54 -43 37
-35 41 -62 19 -124 -12 -34 -12 -43 0 -67 18 -34 11 -95 -17 -153 -15 -30 -19
-53 -15 -74 8 -41 52 -98 76 -98 10 0 20 -7 22 -16 3 -13 7 -13 27 5 14 12 34
24 46 27 25 6 51 74 32 86 -7 4 -13 12 -13 18 -1 5 -2 15 -3 20 0 6 -7 10 -15
10 -7 0 -19 6 -25 14 -10 12 -8 19 11 38 12 12 23 29 25 38 1 8 4 29 7 45 4
17 0 83 -8 147 -15 120 -38 183 -93 254 -25 34 -41 39 -163 55 -116 15 -162
17 -192 8 -22 -6 -30 -4 -38 10 -7 14 -4 23 11 37 11 10 26 33 34 50 8 20 24
35 46 43 95 37 102 41 85 60 -9 10 -16 23 -16 29 0 7 -7 12 -15 12 -22 0 -19
11 13 45 15 17 31 38 35 48 6 15 3 17 -14 12 -19 -6 -20 -4 -14 24 5 24 3 31
-9 31 -14 0 -14 4 0 40 22 54 13 60 -21 16 -35 -46 -46 -46 -32 1 8 25 8 38 1
40 -6 2 -8 17 -6 34 4 29 3 30 -17 20 -12 -7 -26 -9 -31 -6 -6 3 -10 -3 -10
-15 0 -25 -50 -79 -67 -73 -16 6 -17 33 -1 33 9 0 9 3 1 11 -8 8 -8 20 -3 35
7 18 6 22 -4 18 -7 -3 -16 2 -20 11 -3 9 -2 13 4 10 6 -3 7 1 4 9 -8 21 -16
20 -46 -4z m240 -629 c9 -5 25 -12 35 -15 26 -8 20 -24 -8 -21 -14 2 -25 0
-25 -4 0 -4 -6 -8 -12 -9 -7 0 -23 -4 -35 -7 -30 -10 -44 22 -18 41 10 7 22
11 26 8 5 -3 9 0 9 5 0 13 5 14 28 2z m111 -76 c11 -3 21 -13 21 -21 0 -8 4
-14 9 -14 5 0 11 -7 15 -15 5 -14 2 -14 -24 0 -16 8 -52 20 -80 26 -27 6 -50
15 -50 20 0 6 4 8 9 4 5 -3 12 -2 15 3 5 9 52 8 85 -3z m-386 -205 c4 -16 2
-40 -3 -52 -8 -21 -9 -22 -10 -3 -1 11 -4 35 -6 53 -5 40 11 42 19 2z m37
-166 c0 -8 -7 -14 -15 -14 -8 0 -15 5 -15 10 0 6 5 10 11 10 5 0 7 5 3 12 -4
7 -3 8 4 4 7 -4 12 -14 12 -22z m753 -1064 c-14 -13 -53 -22 -53 -12 0 14 9
20 36 20 14 0 22 -4 17 -8z"/>
<path d="M1553 1640 c-13 -3 -31 -12 -40 -20 -10 -8 -30 -23 -46 -33 -31 -20
-34 -37 -11 -72 17 -27 35 -24 72 9 l23 20 25 -31 c20 -26 31 -31 58 -30 42 3
68 24 61 48 -8 24 1 24 45 0 19 -10 46 -21 60 -25 l25 -7 -23 20 c-38 33 -131
63 -199 64 -35 0 -63 4 -63 7 0 11 22 27 42 31 12 3 13 7 5 14 -7 6 -22 9 -34
5z m127 -94 c0 -3 -4 -8 -10 -11 -5 -3 -10 -1 -10 4 0 6 5 11 10 11 6 0 10 -2
10 -4z"/>
<path d="M1618 1633 c7 -3 16 -2 19 1 4 3 -2 6 -13 5 -11 0 -14 -3 -6 -6z"/>
<path d="M2074 1517 c-4 -11 0 -33 10 -53 9 -19 16 -44 16 -56 0 -16 3 -19 11
-11 13 13 2 95 -16 120 -13 17 -14 17 -21 0z"/>
<path d="M1515 1435 c39 -24 102 -35 90 -16 -10 18 -68 41 -99 41 l-31 0 40
-25z"/>
<path d="M2086 1313 c-6 -14 -5 -15 5 -6 7 7 10 15 7 18 -3 3 -9 -2 -12 -12z"/>
<path d="M1322 1103 c-10 -4 -9 -8 5 -18 19 -13 76 -18 107 -8 16 5 14 8 -13
19 -33 14 -75 17 -99 7z"/>
<path d="M1341 774 c0 -11 3 -14 6 -6 3 7 2 16 -1 19 -3 4 -6 -2 -5 -13z"/>
<path d="M1854 639 c-4 -6 -7 -67 -7 -135 0 -110 3 -125 22 -150 28 -36 28
-104 -1 -155 -11 -21 -28 -40 -37 -42 -13 -4 -13 -5 2 -6 10 -1 17 -9 17 -21
0 -11 4 -20 10 -20 5 0 8 -25 6 -55 l-3 -55 348 0 349 0 0 251 c0 235 -1 251
-17 244 -10 -4 -25 -7 -34 -7 -9 0 -21 -10 -27 -23 -6 -13 -25 -31 -42 -40
-29 -15 -33 -14 -103 19 -77 36 -104 47 -126 52 -7 1 -39 16 -70 33 -31 16
-97 44 -146 62 -50 17 -97 38 -106 45 -19 17 -26 17 -35 3z"/>
<path d="M1786 613 c-6 -14 -5 -15 5 -6 7 7 10 15 7 18 -3 3 -9 -2 -12 -12z"/>
<path d="M1820 370 c0 -5 5 -10 10 -10 6 0 10 5 10 10 0 6 -4 10 -10 10 -5 0
-10 -4 -10 -10z"/>
<path d="M1830 264 c0 -8 5 -12 10 -9 6 4 8 11 5 16 -9 14 -15 11 -15 -7z"/>
<path d="M1710 116 c-40 -21 -90 -35 -90 -25 0 14 -24 0 -38 -22 -17 -26 -8
-36 14 -18 16 13 17 12 12 -8 -6 -21 -5 -22 15 -8 27 19 47 19 47 0 0 -21 29
-19 37 3 3 9 14 26 23 37 10 11 15 27 11 37 -5 15 -9 15 -31 4z"/>
<path d="M1774 85 c-19 -14 -18 -14 4 -15 13 0 22 6 22 15 0 19 -1 19 -26 0z"/>
<path d="M1500 15 l-25 -14 28 -1 c17 0 27 5 27 15 0 18 1 18 -30 0z"/>
</g>
</svg>
